{
  "accessors": [
    {
      "bufferView": 2,
      "componentType": 5126,
      "count": 7034,
      "max": [
        1.4251070022583008,
        0.30000001192092896,
        1.9958959817886353
      ],
      "min": [
        -1.399999976158142,
        -5.9200029373168945,
        0.017914999276399612
      ],
      "type": "VEC3"
    },
    {
      "bufferView": 2,
      "byteOffset": 84408,
      "componentType": 5126,
      "count": 7034,
      "max": [
        1.0,
        1.0,
        1.0
      ],
      "min": [
        -1.0,
        -1.0,
        -1.0
      ],
      "type": "VEC3"
    },
    {
      "bufferView": 3,
      "componentType": 5126,
      "count": 7034,
      "max": [
        1.0,
        1.0,
        1.0,
        1.0
      ],
      "min": [
        -1.0,
        -1.0,
        -1.0,
        -1.0
      ],
      "type": "VEC4"
    },
    {
      "bufferView": 1,
      "componentType": 5126,
      "count": 7034,
      "max": [
        0.9991130232810974,
        0.9861559867858887
      ],
      "min": [
        0.0008870000019669533,
        0.0008870000019669533
      ],
      "type": "VEC2"
    },
    {
      "bufferView": 0,
      "componentType": 5125,
      "count": 27252,
      "type": "SCALAR"
    }
  ],
  "asset": {
    "extras": {
      "author": "PT34 (https://sketchfab.com/PT34)",
      "license": "CC-BY-4.0 (http://creativecommons.org/licenses/by/4.0/)",
      "source": "https://sketchfab.com/3d-models/old-pier-game-ready-3c21842960a74452a13609a584f38762",
      "title": "Old pier (Game ready)"
    },
    "generator": "Sketchfab-12.68.0",
    "version": "2.0"
  },
  "bufferViews": [
    {
      "buffer": 0,
      "byteLength": 109008,
      "name": "floatBufferViews",
      "target": 34963
    },
    {
      "buffer": 0,
      "byteLength": 56272,
      "byteOffset": 109008,
      "byteStride": 8,
      "name": "floatBufferViews",
      "target": 34962
    },
    {
      "buffer": 0,
      "byteLength": 168816,
      "byteOffset": 165280,
      "byteStride": 12,
      "name": "floatBufferViews",
      "target": 34962
    },
    {
      "buffer": 0,
      "byteLength": 112544,
      "byteOffset": 334096,
      "byteStride": 16,
      "name": "floatBufferViews",
      "target": 34962
    }
  ],
  "buffers": [
    {
      "byteLength": 446640,
      "uri": "scene.bin"
    }
  ],
  "images": [
    {
      "uri": "textures/pier_baseColor.jpeg"
    },
    {
      "uri": "textures/pier_metallicRoughness.png"
    },
    {
      "uri": "textures/pier_normal.png"
    }
  ],
  "materials": [
    {
      "doubleSided": true,
      "name": "pier",
      "normalTexture": {
        "index": 2
      },
      "occlusionTexture": {
        "index": 1
      },
      "pbrMetallicRoughness": {
        "baseColorTexture": {
          "index": 0
        },
        "metallicRoughnessTexture": {
          "index": 1
        }
      }
    }
  ],
  "meshes": [
    {
      "name": "defaultMaterial",
      "primitives": [
        {
          "attributes": {
            "NORMAL": 1,
            "POSITION": 0,
            "TANGENT": 2,
            "TEXCOORD_0": 3
          },
          "indices": 4,
          "material": 0,
          "mode": 4
        }
      ]
    }
  ],
  "nodes": [
    {
      "children": [
        1
      ],
      "matrix": [
        1.0,
        0.0,
        0.0,
        0.0,
        0.0,
        2.220446049250313e-16,
        -1.0,
        0.0,
        0.0,
        1.0,
        2.220446049250313e-16,
        0.0,
        0.0,
        0.0,
        0.0,
        1.0
      ],
      "name": "Sketchfab_model"
    },
    {
      "children": [
        2
      ],
      "matrix": [
        1.0,
        0.0,
        0.0,
        0.0,
        0.0,
        -4.371139006309477e-08,
        0.999999999999999,
        0.0,
        0.0,
        -0.999999999999999,
        -4.371139006309477e-08,
        0.0,
        0.0,
        0.0,
        0.0,
        1.0
      ],
      "name": "Collada visual scene group"
    },
    {
      "children": [
        3
      ],
      "matrix": [
        100.0,
        0.0,
        0.0,
        0.0,
        0.0,
        -1.6e-05,
        -100.0,
        0.0,
        0.0,
        100.0,
        -1.6e-05,
        0.0,
        0.0,
        0.0,
        0.0,
        1.0
      ],
      "name": "Pier"
    },
    {
      "mesh": 0,
      "name": "defaultMaterial"
    }
  ],
  "samplers": [
    {
      "magFilter": 9729,
      "minFilter": 9987,
      "wrapS": 10497,
      "wrapT": 10497
    }
  ],
  "scene": 0,
  "scenes": [
    {
      "name": "Sketchfab_Scene",
      "nodes": [
        0
      ]
    }
  ],
  "textures": [
    {
      "sampler": 0,
      "source": 0
    },
    {
      "sampler": 0,
      "source": 1
    },
    {
      "sampler": 0,
      "source": 2
    }
  ]
}
