{
  "accessors": [
    {
      "bufferView": 2,
      "componentType": 5126,
      "count": 1309,
      "max": [
        -169.45956420898438,
        141.18014526367188,
        332.1752624511719
      ],
      "min": [
        -418.2799377441406,
        -19.148508071899414,
        76.79207611083984
      ],
      "type": "VEC3"
    },
    {
      "bufferView": 2,
      "byteOffset": 15708,
      "componentType": 5126,
      "count": 1309,
      "max": [
        0.9853662252426147,
        0.9971797466278076,
        0.9997087717056274
      ],
      "min": [
        -0.9989413619041443,
        -0.9980565905570984,
        -0.9996709823608398
      ],
      "type": "VEC3"
    },
    {
      "bufferView": 3,
      "componentType": 5126,
      "count": 1309,
      "max": [
        0.9170110821723938,
        0.9973442554473877,
        0.9460774064064026,
        1.0
      ],
      "min": [
        -0.9251248836517334,
        -0.9953271746635437,
        -0.9997101426124573,
        1.0
      ],
      "type": "VEC4"
    },
    {
      "bufferView": 1,
      "componentType": 5126,
      "count": 1309,
      "max": [
        0.9922497272491455,
        0.9873444437980652
      ],
      "min": [
        0.010819632560014725,
        0.017621442675590515
      ],
      "type": "VEC2"
    },
    {
      "bufferView": 0,
      "componentType": 5125,
      "count": 7458,
      "type": "SCALAR"
    }
  ],
  "asset": {
    "extras": {
      "author": "Xephira (https://sketchfab.com/xephira)",
      "license": "CC-BY-4.0 (http://creativecommons.org/licenses/by/4.0/)",
      "source": "https://sketchfab.com/3d-models/stone-2e966dce9db34fecad1290452bdab165",
      "title": "Stone"
    },
    "generator": "Sketchfab-12.67.0",
    "version": "2.0"
  },
  "bufferViews": [
    {
      "buffer": 0,
      "byteLength": 29832,
      "name": "floatBufferViews",
      "target": 34963
    },
    {
      "buffer": 0,
      "byteLength": 10472,
      "byteOffset": 29832,
      "byteStride": 8,
      "name": "floatBufferViews",
      "target": 34962
    },
    {
      "buffer": 0,
      "byteLength": 31416,
      "byteOffset": 40304,
      "byteStride": 12,
      "name": "floatBufferViews",
      "target": 34962
    },
    {
      "buffer": 0,
      "byteLength": 20944,
      "byteOffset": 71720,
      "byteStride": 16,
      "name": "floatBufferViews",
      "target": 34962
    }
  ],
  "buffers": [
    {
      "byteLength": 92664,
      "uri": "scene.bin"
    }
  ],
  "images": [
    {
      "uri": "textures/Material_108_baseColor.jpeg"
    },
    {
      "uri": "textures/Material_108_metallicRoughness.png"
    },
    {
      "uri": "textures/Material_108_normal.png"
    }
  ],
  "materials": [
    {
      "doubleSided": true,
      "name": "Material_108",
      "normalTexture": {
        "index": 2
      },
      "occlusionTexture": {
        "index": 1
      },
      "pbrMetallicRoughness": {
        "baseColorTexture": {
          "index": 0
        },
        "metallicFactor": 0.0,
        "metallicRoughnessTexture": {
          "index": 1
        }
      }
    }
  ],
  "meshes": [
    {
      "name": "LowPoly001_Material #108_0",
      "primitives": [
        {
          "attributes": {
            "NORMAL": 1,
            "POSITION": 0,
            "TANGENT": 2,
            "TEXCOORD_0": 3
          },
          "indices": 4,
          "material": 0,
          "mode": 4
        }
      ]
    }
  ],
  "nodes": [
    {
      "children": [
        1
      ],
      "matrix": [
        1.0,
        0.0,
        0.0,
        0.0,
        0.0,
        2.220446049250313e-16,
        -1.0,
        0.0,
        0.0,
        1.0,
        2.220446049250313e-16,
        0.0,
        0.0,
        0.0,
        0.0,
        1.0
      ],
      "name": "Sketchfab_model"
    },
    {
      "children": [
        2
      ],
      "matrix": [
        1.0,
        0.0,
        0.0,
        0.0,
        0.0,
        0.0,
        1.0,
        0.0,
        0.0,
        -1.0,
        0.0,
        0.0,
        0.0,
        0.0,
        0.0,
        1.0
      ],
      "name": "af3387fbdb174fc79da0b21d5f2b0ad0.fbx"
    },
    {
      "children": [
        3
      ],
      "name": "RootNode"
    },
    {
      "children": [
        4
      ],
      "matrix": [
        1.0,
        0.0,
        0.0,
        0.0,
        0.0,
        0.999999999999999,
        4.371138828673792e-08,
        0.0,
        0.0,
        -4.371138828673792e-08,
        0.999999999999999,
        0.0,
        1035.917724609375,
        0.0,
        0.0,
        1.0
      ],
      "name": "LowPoly001"
    },
    {
      "children": [
        5
      ],
      "matrix": [
        1.0,
        0.0,
        -0.0,
        0.0,
        0.0,
        1.0,
        0.0,
        0.0,
        0.0,
        0.0,
        1.0,
        0.0,
        293.8697509765625,
        -61.01581954956055,
        -204.48367309570313,
        1.0
      ],
      "name": "Object_4"
    },
    {
      "mesh": 0,
      "name": "LowPoly001_Material #108_0"
    }
  ],
  "samplers": [
    {
      "magFilter": 9729,
      "minFilter": 9987,
      "wrapS": 10497,
      "wrapT": 10497
    }
  ],
  "scene": 0,
  "scenes": [
    {
      "name": "Sketchfab_Scene",
      "nodes": [
        0
      ]
    }
  ],
  "textures": [
    {
      "sampler": 0,
      "source": 0
    },
    {
      "sampler": 0,
      "source": 1
    },
    {
      "sampler": 0,
      "source": 2
    }
  ]
}
